<svg xmlns="http://www.w3.org/2000/svg" viewBox="0 0 1100 859" font-family="system-ui, -apple-system, 'Segoe UI', Roboto, sans-serif" role="img" aria-label="The diagnosis acute pyelonephritis as a mat: its attributes, and everything one relationship away as cards in labelled containers."><style>.detail{display:none;pointer-events:none}.mini{cursor:default}svg:has(#m-RDE2_000800:hover) #d-RDE2_000800{display:inline}svg:has(#m-RDE2_000812:hover) #d-RDE2_000812{display:inline}svg:has(#m-RDE2_000803:hover) #d-RDE2_000803{display:inline}svg:has(#m-RDE2_000804:hover) #d-RDE2_000804{display:inline}svg:has(#m-RDE2_000802:hover) #d-RDE2_000802{display:inline}svg:has(#m-RDE2_000809:hover) #d-RDE2_000809{display:inline}svg:has(#m-RDE2_000811:hover) #d-RDE2_000811{display:inline}svg:has(#m-RDE2_000808:hover) #d-RDE2_000808{display:inline}</style><rect width="1100" height="859" fill="#ffffff"/><rect x="0.75" y="0.75" width="1098.5" height="858" rx="10" fill="none" stroke="#cbd5e1" stroke-width="1.5"/><rect x="0" y="0" width="1100" height="44" fill="#f5f3ff"/><rect x="0" y="0" width="6" height="44" fill="#7c3aed"/><text x="18.0" y="29.0" font-size="18" fill="#4c1d95" font-weight="700">acute pyelonephritis</text><text x="1086.0" y="28.0" font-size="11" fill="#64748b" text-anchor="end" font-family="ui-monospace, SFMono-Regular, Menlo, monospace">DIAGNOSIS · RDE2_000801</text><rect x="0" y="44" width="1100" height="24" fill="#fffbeb"/><text x="18.0" y="60.0" font-size="11" fill="#78350f">⌂ RID205 “kidney” · structure</text><text x="1086.0" y="60.0" font-size="10" fill="#64748b" text-anchor="end" font-style="italic">inherited from pyelonephritis</text><line x1="0" y1="68" x2="1100" y2="68" stroke="#cbd5e1"/><text x="18.0" y="92.0" font-size="13" fill="#1f2937">Pyelonephritis in its acute phase: edema and tubular obstruction that produce the imaging manifestations below. A subtype rather than an acuity element</text><text x="18.0" y="108.0" font-size="13" fill="#1f2937">because acute and chronic disease manifest differently (subtype-over-attribute rule, 2026-08-25 exchange).</text><line x1="0" y1="118" x2="1100" y2="118" stroke="#cbd5e1"/><text x="18.0" y="136.0" font-size="10" fill="#64748b" font-weight="700">ATTRIBUTES</text><text x="18.0" y="152.0" font-size="9.5" fill="#94a3b8" font-weight="600">element</text><text x="228.0" y="152.0" font-size="9.5" fill="#94a3b8" font-weight="600">id</text><text x="336.0" y="152.0" font-size="9.5" fill="#94a3b8" font-weight="600">kind</text><text x="500.0" y="152.0" font-size="9.5" fill="#94a3b8" font-weight="600">values / quantity</text><line x1="14" y1="161" x2="1086" y2="161" stroke="#f8fafc"/><text x="18.0" y="173.0" font-size="11" fill="#1f2937" font-weight="600">presence</text><text x="228.0" y="173.0" font-size="9.5" fill="#64748b" font-family="ui-monospace, SFMono-Regular, Menlo, monospace">RDE2_000001</text><text x="336.0" y="173.0" font-size="11" fill="#64748b">categorical</text><text x="500.0" y="173.0" font-size="11" fill="#1f2937">present · possible · absent · indeterminate · …</text><text x="500.0" y="186.0" font-size="9.5" fill="#94a3b8">SNOMED CT 386397008 “Presence”</text><line x1="0" y1="198" x2="1100" y2="198" stroke="#cbd5e1"/><rect x="14" y="210" width="1072" height="74" rx="8" fill="#f8fafc" stroke="#cbd5e1" stroke-dasharray="3 3"/><text x="24.0" y="225.0" font-size="10" fill="#64748b" font-weight="700">A KIND OF</text><g class="mini" id="m-RDE2_000800" data-node="RDE2_000800"><rect x="22.0" y="232.0" width="344.0" height="40" rx="6" fill="#f5f3ff" stroke="#cbd5e1"/><rect x="22.0" y="232.0" width="4" height="40" rx="2" fill="#7c3aed"/><text x="34.0" y="249.0" font-size="12.5" fill="#4c1d95" font-weight="600">pyelonephritis</text><text x="34.0" y="264.0" font-size="9.5" fill="#64748b" font-family="ui-monospace, SFMono-Regular, Menlo, monospace">DIAGNOSIS · RDE2_000800</text></g><rect x="14" y="290" width="1072" height="74" rx="8" fill="#f8fafc" stroke="#cbd5e1" stroke-dasharray="3 3"/><text x="24.0" y="305.0" font-size="10" fill="#64748b" font-weight="700">KINDS OF</text><g class="mini" id="m-RDE2_000812" data-node="RDE2_000812"><rect x="22.0" y="312.0" width="344.0" height="40" rx="6" fill="#f5f3ff" stroke="#cbd5e1"/><rect x="22.0" y="312.0" width="4" height="40" rx="2" fill="#7c3aed"/><text x="34.0" y="329.0" font-size="12.5" fill="#4c1d95" font-weight="600">emphysematous pyelonephritis</text><text x="34.0" y="344.0" font-size="9.5" fill="#64748b" font-family="ui-monospace, SFMono-Regular, Menlo, monospace">DIAGNOSIS · RDE2_000812</text></g><rect x="14" y="370" width="1072" height="90" rx="8" fill="#f8fafc" stroke="#cbd5e1" stroke-dasharray="3 3"/><text x="24.0" y="385.0" font-size="10" fill="#64748b" font-weight="700">MANIFESTS AS</text><rect x="22.0" y="392" width="344.0" height="56" rx="7" fill="none" stroke="#94a3b8" stroke-dasharray="2 3"/><rect x="34.0" y="441" width="121.3" height="14" fill="#ffffff"/><text x="39.0" y="451.0" font-size="10" fill="#64748b">frequent · suggestive</text><g class="mini" id="m-RDE2_000803" data-node="RDE2_000803"><rect x="27.0" y="396.0" width="334.0" height="36" rx="6" fill="#eff6ff" stroke="#cbd5e1"/><rect x="27.0" y="396.0" width="4" height="36" rx="2" fill="#2563eb"/><text x="39.0" y="413.0" font-size="12.5" fill="#1e3a8a" font-weight="600">perinephric fat stranding</text><text x="39.0" y="428.0" font-size="9.5" fill="#64748b" font-family="ui-monospace, SFMono-Regular, Menlo, monospace">FINDING · RDE2_000803</text></g><rect x="379.3" y="392" width="344.0" height="56" rx="7" fill="none" stroke="#94a3b8" stroke-dasharray="2 3"/><rect x="391.3" y="441" width="52.4" height="14" fill="#ffffff"/><text x="396.3" y="451.0" font-size="10" fill="#64748b">frequent</text><g class="mini" id="m-RDE2_000804" data-node="RDE2_000804"><rect x="384.3" y="396.0" width="334.0" height="36" rx="6" fill="#eff6ff" stroke="#cbd5e1"/><rect x="384.3" y="396.0" width="4" height="36" rx="2" fill="#2563eb"/><text x="396.3" y="413.0" font-size="12.5" fill="#1e3a8a" font-weight="600">renal enlargement</text><text x="396.3" y="428.0" font-size="9.5" fill="#64748b" font-family="ui-monospace, SFMono-Regular, Menlo, monospace">FINDING · RDE2_000804</text></g><rect x="736.7" y="392" width="344.0" height="56" rx="7" fill="none" stroke="#94a3b8" stroke-dasharray="2 3"/><rect x="748.7" y="441" width="158.4" height="14" fill="#ffffff"/><text x="753.7" y="451.0" font-size="10" fill="#64748b">frequent · highly suggestive</text><g class="mini" id="m-RDE2_000802" data-node="RDE2_000802"><rect x="741.7" y="396.0" width="334.0" height="36" rx="6" fill="#eff6ff" stroke="#cbd5e1"/><rect x="741.7" y="396.0" width="4" height="36" rx="2" fill="#2563eb"/><text x="753.7" y="413.0" font-size="12.5" fill="#1e3a8a" font-weight="600">striated nephrogram</text><text x="753.7" y="428.0" font-size="9.5" fill="#64748b" font-family="ui-monospace, SFMono-Regular, Menlo, monospace">FINDING · RDE2_000802</text></g><rect x="14" y="466" width="1072" height="90" rx="8" fill="#f8fafc" stroke="#cbd5e1" stroke-dasharray="3 3"/><text x="24.0" y="481.0" font-size="10" fill="#64748b" font-weight="700">MAY CAUSE</text><rect x="22.0" y="488" width="344.0" height="56" rx="7" fill="none" stroke="#94a3b8" stroke-dasharray="2 3"/><rect x="34.0" y="537" width="63.0" height="14" fill="#ffffff"/><text x="39.0" y="547.0" font-size="10" fill="#64748b">occasional</text><g class="mini" id="m-RDE2_000809" data-node="RDE2_000809"><rect x="27.0" y="492.0" width="334.0" height="36" rx="6" fill="#f5f3ff" stroke="#cbd5e1"/><rect x="27.0" y="492.0" width="4" height="36" rx="2" fill="#7c3aed"/><text x="39.0" y="509.0" font-size="12.5" fill="#4c1d95" font-weight="600">renal abscess</text><text x="39.0" y="524.0" font-size="9.5" fill="#64748b" font-family="ui-monospace, SFMono-Regular, Menlo, monospace">DIAGNOSIS · RDE2_000809</text></g><rect x="14" y="562" width="1072" height="74" rx="8" fill="#f8fafc" stroke="#cbd5e1" stroke-dasharray="3 3"/><text x="24.0" y="577.0" font-size="10" fill="#64748b" font-weight="700">PROGRESSES TO</text><g class="mini" id="m-RDE2_000811" data-node="RDE2_000811"><rect x="22.0" y="584.0" width="344.0" height="40" rx="6" fill="#f5f3ff" stroke="#cbd5e1"/><rect x="22.0" y="584.0" width="4" height="40" rx="2" fill="#7c3aed"/><text x="34.0" y="601.0" font-size="12.5" fill="#4c1d95" font-weight="600">chronic pyelonephritis</text><text x="34.0" y="616.0" font-size="9.5" fill="#64748b" font-family="ui-monospace, SFMono-Regular, Menlo, monospace">DIAGNOSIS · RDE2_000811</text></g><rect x="14" y="642" width="1072" height="74" rx="8" fill="#f8fafc" stroke="#cbd5e1" stroke-dasharray="3 3"/><text x="24.0" y="657.0" font-size="10" fill="#64748b" font-weight="700">OCCURS WITH</text><g class="mini" id="m-RDE2_000808" data-node="RDE2_000808"><rect x="22.0" y="664.0" width="344.0" height="40" rx="6" fill="#eff6ff" stroke="#cbd5e1"/><rect x="22.0" y="664.0" width="4" height="40" rx="2" fill="#2563eb"/><text x="34.0" y="681.0" font-size="12.5" fill="#1e3a8a" font-weight="600">hydronephrosis</text><text x="34.0" y="696.0" font-size="9.5" fill="#64748b" font-family="ui-monospace, SFMono-Regular, Menlo, monospace">FINDING · RDE2_000808</text></g><line x1="0" y1="726" x2="1100" y2="726" stroke="#cbd5e1"/><text x="18.0" y="743.0" font-size="11" fill="#64748b">SNOMED CT 36689008 “Acute pyelonephritis”</text><rect x="0" y="753" width="1100" height="104" fill="#f8fafc"/><line x1="0" y1="753" x2="1100" y2="753" stroke="#7c3aed" stroke-width="1.5"/><text x="14.0" y="767.0" font-size="9" fill="#64748b" font-weight="700">MODALITY</text><text x="14.0" y="781.0" font-size="10" fill="#94a3b8">magnetic resonance imaging</text><text x="14.0" y="794.0" font-size="10" fill="#94a3b8">RID10312</text><text x="14.0" y="807.0" font-size="10" fill="#94a3b8">computed tomography</text><text x="14.0" y="820.0" font-size="10" fill="#94a3b8">RID10321</text><text x="14.0" y="833.0" font-size="10" fill="#94a3b8">ultrasound RID10326</text><text x="14.0" y="846.0" font-size="10" fill="#94a3b8" font-style="italic">(inherited from pyelonephritis)</text><line x1="161.1" y1="757" x2="161.1" y2="853" stroke="#cbd5e1"/><text x="167.1" y="767.0" font-size="9" fill="#64748b" font-weight="700">REGION</text><text x="167.1" y="781.0" font-size="10" fill="#94a3b8">abdomen RID56</text><text x="167.1" y="794.0" font-size="10" fill="#94a3b8" font-style="italic">(inherited from pyelonephritis)</text><line x1="314.3" y1="757" x2="314.3" y2="853" stroke="#cbd5e1"/><text x="320.3" y="767.0" font-size="9" fill="#64748b" font-weight="700">SUBSPECIALTY</text><text x="320.3" y="781.0" font-size="10" fill="#94a3b8">abdominal radiology</text><text x="320.3" y="794.0" font-size="10" fill="#94a3b8">RID50608</text><text x="320.3" y="807.0" font-size="10" fill="#94a3b8">genitourinary radiology</text><text x="320.3" y="820.0" font-size="10" fill="#94a3b8">RID50614</text><text x="320.3" y="833.0" font-size="10" fill="#94a3b8" font-style="italic">(inherited from pyelonephritis)</text><line x1="467.4" y1="757" x2="467.4" y2="853" stroke="#cbd5e1"/><text x="473.4" y="767.0" font-size="9" fill="#64748b" font-weight="700">SEX</text><text x="473.4" y="781.0" font-size="10" fill="#94a3b8">sex-neutral RDE2_001101</text><text x="473.4" y="794.0" font-size="10" fill="#94a3b8" font-style="italic">(inherited from pyelonephritis)</text><line x1="620.6" y1="757" x2="620.6" y2="853" stroke="#cbd5e1"/><text x="626.6" y="767.0" font-size="9" fill="#64748b" font-weight="700">AGE</text><text x="626.6" y="781.0" font-size="10" fill="#94a3b8">all ages RDE2_001200</text><text x="626.6" y="794.0" font-size="10" fill="#94a3b8" font-style="italic">(inherited from pyelonephritis)</text><line x1="773.7" y1="757" x2="773.7" y2="853" stroke="#cbd5e1"/><text x="779.7" y="767.0" font-size="9" fill="#64748b" font-weight="700">COURSE</text><text x="779.7" y="781.0" font-size="10" fill="#1f2937">weeks RDE2_001303</text><text x="779.7" y="794.0" font-size="10" fill="#1f2937">resolving RDE2_001404</text><line x1="926.9" y1="757" x2="926.9" y2="853" stroke="#cbd5e1"/><text x="932.9" y="767.0" font-size="9" fill="#64748b" font-weight="700">ETIOLOGY</text><text x="932.9" y="781.0" font-size="10" fill="#94a3b8">inflammatory:infectious</text><text x="932.9" y="794.0" font-size="10" fill="#94a3b8">RDE2_001002</text><text x="932.9" y="807.0" font-size="10" fill="#94a3b8" font-style="italic">(inherited from pyelonephritis)</text><g class="details"><g class="detail" id="d-RDE2_000800" transform="translate(22.0,274.0)"><rect x="0" y="0" width="420" height="165" rx="8" fill="#ffffff" stroke="#7c3aed" stroke-width="1.2"/><rect x="0" y="0" width="420" height="30" rx="8" fill="#f5f3ff"/><rect x="0" y="22" width="420" height="8" fill="#f5f3ff"/><text x="12.0" y="20.0" font-size="13" fill="#4c1d95" font-weight="700">pyelonephritis</text><text x="408.0" y="20.0" font-size="9.5" fill="#64748b" text-anchor="end" font-family="ui-monospace, SFMono-Regular, Menlo, monospace">DIAGNOSIS · RDE2_000800</text><text x="12.0" y="44.0" font-size="11" fill="#1f2937">Bacterial infection of the renal parenchyma and collecting system.</text><text x="12.0" y="58.0" font-size="11" fill="#78350f">⌂ RID205 “kidney” · structure</text><text x="12.0" y="72.0" font-size="10" fill="#14532d">attributes: presence</text><text x="12.0" y="85.0" font-size="10" fill="#4c1d95">a kind of  renal abnormality</text><text x="12.0" y="98.0" font-size="10" fill="#4c1d95">kinds of  chronic pyelonephritis</text><text x="12.0" y="111.0" font-size="10" fill="#64748b">RadLex RID3547 “pyelonephritis”</text><text x="12.0" y="124.0" font-size="10" fill="#64748b">SNOMED CT 45816000 “Pyelonephritis”</text><text x="12.0" y="137.0" font-size="10" fill="#64748b">modality magnetic resonance imaging, computed tomography, ultrasound ·</text><text x="12.0" y="150.0" font-size="10" fill="#64748b">region abdomen · subspecialty abdominal radiology, genitourinary radiology …</text></g><g class="detail" id="d-RDE2_000812" transform="translate(22.0,354.0)"><rect x="0" y="0" width="420" height="153" rx="8" fill="#ffffff" stroke="#7c3aed" stroke-width="1.2"/><rect x="0" y="0" width="420" height="30" rx="8" fill="#f5f3ff"/><rect x="0" y="22" width="420" height="8" fill="#f5f3ff"/><text x="12.0" y="20.0" font-size="13" fill="#4c1d95" font-weight="700">emphysematous pyelonephritis</text><text x="408.0" y="20.0" font-size="9.5" fill="#64748b" text-anchor="end" font-family="ui-monospace, SFMono-Regular, Menlo, monospace">DIAGNOSIS · RDE2_000812</text><text x="12.0" y="44.0" font-size="11" fill="#1f2937">Necrotizing infection of the renal parenchyma by gas-forming</text><text x="12.0" y="58.0" font-size="11" fill="#1f2937">organisms.</text><text x="12.0" y="72.0" font-size="11" fill="#78350f">⌂ RID205 “kidney” · structure  (inherited from pyelonephritis)</text><text x="12.0" y="86.0" font-size="10" fill="#14532d">attributes: presence</text><text x="12.0" y="99.0" font-size="10" fill="#4c1d95">manifests as  renal parenchymal gas  · obligate · pathognomonic</text><text x="12.0" y="112.0" font-size="10" fill="#64748b">SNOMED CT 236373001 “Emphysematous pyelonephritis”</text><text x="12.0" y="125.0" font-size="10" fill="#64748b">modality magnetic resonance imaging, computed tomography, ultrasound ·</text><text x="12.0" y="138.0" font-size="10" fill="#64748b">region abdomen · subspecialty abdominal radiology, genitourinary radiology …</text></g><g class="detail" id="d-RDE2_000803" transform="translate(22.0,450.0)"><rect x="0" y="0" width="420" height="127" rx="8" fill="#ffffff" stroke="#2563eb" stroke-width="1.2"/><rect x="0" y="0" width="420" height="30" rx="8" fill="#eff6ff"/><rect x="0" y="22" width="420" height="8" fill="#eff6ff"/><text x="12.0" y="20.0" font-size="13" fill="#1e3a8a" font-weight="700">perinephric fat stranding</text><text x="408.0" y="20.0" font-size="9.5" fill="#64748b" text-anchor="end" font-family="ui-monospace, SFMono-Regular, Menlo, monospace">FINDING · RDE2_000803</text><text x="12.0" y="44.0" font-size="11" fill="#1f2937">Increased attenuation with linear or hazy strands in the perirenal</text><text x="12.0" y="58.0" font-size="11" fill="#1f2937">fat.</text><text x="12.0" y="72.0" font-size="11" fill="#78350f">⌂ RID434 “perirenal space” · structure</text><text x="12.0" y="86.0" font-size="10" fill="#64748b">synonyms: perinephric stranding</text><text x="12.0" y="99.0" font-size="10" fill="#14532d">attributes: presence · severity</text><text x="12.0" y="112.0" font-size="10" fill="#4c1d95">a kind of  renal abnormality</text></g><g class="detail" id="d-RDE2_000804" transform="translate(379.3,450.0)"><rect x="0" y="0" width="420" height="154" rx="8" fill="#ffffff" stroke="#2563eb" stroke-width="1.2"/><rect x="0" y="0" width="420" height="30" rx="8" fill="#eff6ff"/><rect x="0" y="22" width="420" height="8" fill="#eff6ff"/><text x="12.0" y="20.0" font-size="13" fill="#1e3a8a" font-weight="700">renal enlargement</text><text x="408.0" y="20.0" font-size="9.5" fill="#64748b" text-anchor="end" font-family="ui-monospace, SFMono-Regular, Menlo, monospace">FINDING · RDE2_000804</text><text x="12.0" y="44.0" font-size="11" fill="#1f2937">Renal length beyond the expected range for age and body size. An</text><text x="12.0" y="58.0" font-size="11" fill="#1f2937">interpretation of the renal length binding, not a measurement of</text><text x="12.0" y="72.0" font-size="11" fill="#1f2937">its own (03 §9).</text><text x="12.0" y="86.0" font-size="11" fill="#78350f">⌂ RID205 “kidney” · structure</text><text x="12.0" y="100.0" font-size="10" fill="#64748b">synonyms: nephromegaly</text><text x="12.0" y="113.0" font-size="10" fill="#14532d">attributes: presence</text><text x="12.0" y="126.0" font-size="10" fill="#4c1d95">a kind of  renal abnormality</text><text x="12.0" y="139.0" font-size="10" fill="#64748b">SNOMED CT 300444006 “Large kidney”</text></g><g class="detail" id="d-RDE2_000802" transform="translate(666.0,450.0)"><rect x="0" y="0" width="420" height="141" rx="8" fill="#ffffff" stroke="#2563eb" stroke-width="1.2"/><rect x="0" y="0" width="420" height="30" rx="8" fill="#eff6ff"/><rect x="0" y="22" width="420" height="8" fill="#eff6ff"/><text x="12.0" y="20.0" font-size="13" fill="#1e3a8a" font-weight="700">striated nephrogram</text><text x="408.0" y="20.0" font-size="9.5" fill="#64748b" text-anchor="end" font-family="ui-monospace, SFMono-Regular, Menlo, monospace">FINDING · RDE2_000802</text><text x="12.0" y="44.0" font-size="11" fill="#1f2937">Alternating linear bands of higher and lower attenuation radiating</text><text x="12.0" y="58.0" font-size="11" fill="#1f2937">from the papilla to the cortex on contrast-enhanced CT, or the</text><text x="12.0" y="72.0" font-size="11" fill="#1f2937">equivalent on MR, from tubular obstruction and interstitial edema.</text><text x="12.0" y="86.0" font-size="11" fill="#78350f">⌂ RID205 “kidney” · structure</text><text x="12.0" y="100.0" font-size="10" fill="#14532d">attributes: presence · distribution</text><text x="12.0" y="113.0" font-size="10" fill="#4c1d95">a kind of  renal abnormality</text><text x="12.0" y="126.0" font-size="10" fill="#64748b">modality magnetic resonance imaging, computed tomography</text></g><g class="detail" id="d-RDE2_000809" transform="translate(22.0,546.0)"><rect x="0" y="0" width="420" height="126" rx="8" fill="#ffffff" stroke="#7c3aed" stroke-width="1.2"/><rect x="0" y="0" width="420" height="30" rx="8" fill="#f5f3ff"/><rect x="0" y="22" width="420" height="8" fill="#f5f3ff"/><text x="12.0" y="20.0" font-size="13" fill="#4c1d95" font-weight="700">renal abscess</text><text x="408.0" y="20.0" font-size="9.5" fill="#64748b" text-anchor="end" font-family="ui-monospace, SFMono-Regular, Menlo, monospace">DIAGNOSIS · RDE2_000809</text><text x="12.0" y="44.0" font-size="11" fill="#1f2937">A walled-off collection of pus within the renal parenchyma.</text><text x="12.0" y="58.0" font-size="11" fill="#78350f">⌂ RID205 “kidney” · structure</text><text x="12.0" y="72.0" font-size="10" fill="#14532d">attributes: presence · size (mean diameter)</text><text x="12.0" y="85.0" font-size="10" fill="#4c1d95">a kind of  renal lesion</text><text x="12.0" y="98.0" font-size="10" fill="#64748b">SNOMED CT 3321001 “Renal abscess”</text><text x="12.0" y="111.0" font-size="10" fill="#64748b">etiology inflammatory:infectious</text></g><g class="detail" id="d-RDE2_000811" transform="translate(22.0,626.0)"><rect x="0" y="0" width="420" height="179" rx="8" fill="#ffffff" stroke="#7c3aed" stroke-width="1.2"/><rect x="0" y="0" width="420" height="30" rx="8" fill="#f5f3ff"/><rect x="0" y="22" width="420" height="8" fill="#f5f3ff"/><text x="12.0" y="20.0" font-size="13" fill="#4c1d95" font-weight="700">chronic pyelonephritis</text><text x="408.0" y="20.0" font-size="9.5" fill="#64748b" text-anchor="end" font-family="ui-monospace, SFMono-Regular, Menlo, monospace">DIAGNOSIS · RDE2_000811</text><text x="12.0" y="44.0" font-size="11" fill="#1f2937">Pyelonephritis with established parenchymal damage from prior or</text><text x="12.0" y="58.0" font-size="11" fill="#1f2937">recurrent infection.</text><text x="12.0" y="72.0" font-size="11" fill="#78350f">⌂ RID205 “kidney” · structure  (inherited from pyelonephritis)</text><text x="12.0" y="86.0" font-size="10" fill="#14532d">attributes: presence</text><text x="12.0" y="99.0" font-size="10" fill="#4c1d95">a kind of  pyelonephritis</text><text x="12.0" y="112.0" font-size="10" fill="#4c1d95">kinds of  xanthogranulomatous pyelonephritis</text><text x="12.0" y="125.0" font-size="10" fill="#4c1d95">manifests as  renal cortical scarring  · very frequent</text><text x="12.0" y="138.0" font-size="10" fill="#64748b">SNOMED CT 63302006 “Chronic pyelonephritis”</text><text x="12.0" y="151.0" font-size="10" fill="#64748b">modality magnetic resonance imaging, computed tomography, ultrasound ·</text><text x="12.0" y="164.0" font-size="10" fill="#64748b">region abdomen · subspecialty abdominal radiology, genitourinary radiology …</text></g><g class="detail" id="d-RDE2_000808" transform="translate(22.0,706.0)"><rect x="0" y="0" width="420" height="126" rx="8" fill="#ffffff" stroke="#2563eb" stroke-width="1.2"/><rect x="0" y="0" width="420" height="30" rx="8" fill="#eff6ff"/><rect x="0" y="22" width="420" height="8" fill="#eff6ff"/><text x="12.0" y="20.0" font-size="13" fill="#1e3a8a" font-weight="700">hydronephrosis</text><text x="408.0" y="20.0" font-size="9.5" fill="#64748b" text-anchor="end" font-family="ui-monospace, SFMono-Regular, Menlo, monospace">FINDING · RDE2_000808</text><text x="12.0" y="44.0" font-size="11" fill="#1f2937">Dilation of the renal collecting system.</text><text x="12.0" y="58.0" font-size="11" fill="#78350f">⌂ RID205 “kidney” · structure</text><text x="12.0" y="72.0" font-size="10" fill="#14532d">attributes: presence · severity</text><text x="12.0" y="85.0" font-size="10" fill="#4c1d95">a kind of  renal abnormality</text><text x="12.0" y="98.0" font-size="10" fill="#64748b">RadLex RID34393 “hydronephrosis”</text><text x="12.0" y="111.0" font-size="10" fill="#64748b">SNOMED CT 43064006 “Hydronephrosis”</text></g></g></svg>
