<svg xmlns="http://www.w3.org/2000/svg" viewBox="0 0 1300 1241" width="1300" height="1241" font-family="system-ui, sans-serif" role="img" aria-label="Causes on the left, the pleural abnormality grouping box in the middle containing the pleural effusion finding with its six diagnosis subtypes and the pleural thickening finding, companion findings on the right."><rect width="1300" height="1241" fill="#ffffff"/><text x="24" y="28" font-size="15" font-weight="700" fill="#1f2937">Pleural effusion: one finding, its diagnosis subtypes, and the causes that point at it</text><text x="24" y="48" font-size="10" letter-spacing="1.2" font-weight="600" fill="#64748b">TAXONOMY · INDENTED UNDER ITS PARENT</text><text x="340" y="48" font-size="10" letter-spacing="1.2" font-weight="600" fill="#64748b">READ ACROSS: THE ROW CLASS → THE COLUMN CLASS</text><rect x="340" y="56" width="104" height="48" fill="#eff6ff"/><rect x="340" y="101" width="104" height="3" fill="#2563eb"/><text x="392" y="70" text-anchor="middle" font-size="9.5" font-weight="700" fill="#1e3a8a">pleural effusion</text><text x="392" y="97" text-anchor="middle" font-size="7.5" fill="#64748b">finding</text><rect x="444" y="56" width="104" height="48" fill="#f5f3ff"/><rect x="444" y="101" width="104" height="3" fill="#7c3aed"/><text x="496" y="70" text-anchor="middle" font-size="9.5" font-weight="700" fill="#4c1d95">hepatic</text><text x="496" y="82" text-anchor="middle" font-size="9.5" font-weight="700" fill="#4c1d95">hydrothorax</text><text x="496" y="97" text-anchor="middle" font-size="7.5" fill="#64748b">diagnosis</text><rect x="548" y="56" width="104" height="48" fill="#f5f3ff"/><rect x="548" y="101" width="104" height="3" fill="#7c3aed"/><text x="600" y="70" text-anchor="middle" font-size="9.5" font-weight="700" fill="#4c1d95">empyema</text><text x="600" y="97" text-anchor="middle" font-size="7.5" fill="#64748b">diagnosis</text><rect x="652" y="56" width="104" height="48" fill="#f5f3ff"/><rect x="652" y="101" width="104" height="3" fill="#7c3aed"/><text x="704" y="70" text-anchor="middle" font-size="9.5" font-weight="700" fill="#4c1d95">malignant</text><text x="704" y="82" text-anchor="middle" font-size="9.5" font-weight="700" fill="#4c1d95">pleural effusion</text><text x="704" y="97" text-anchor="middle" font-size="7.5" fill="#64748b">diagnosis</text><rect x="756" y="56" width="104" height="48" fill="#eff6ff"/><rect x="756" y="101" width="104" height="3" fill="#2563eb"/><text x="808" y="70" text-anchor="middle" font-size="9.5" font-weight="700" fill="#1e3a8a">pleural</text><text x="808" y="82" text-anchor="middle" font-size="9.5" font-weight="700" fill="#1e3a8a">thickening</text><text x="808" y="97" text-anchor="middle" font-size="7.5" fill="#64748b">finding</text><rect x="860" y="56" width="104" height="48" fill="#eff6ff"/><rect x="860" y="101" width="104" height="3" fill="#2563eb"/><text x="912" y="70" text-anchor="middle" font-size="9.5" font-weight="700" fill="#1e3a8a">nodular pleural</text><text x="912" y="82" text-anchor="middle" font-size="9.5" font-weight="700" fill="#1e3a8a">thickening</text><text x="912" y="97" text-anchor="middle" font-size="7.5" fill="#64748b">finding</text><rect x="964" y="56" width="104" height="48" fill="#eff6ff"/><rect x="964" y="101" width="104" height="3" fill="#2563eb"/><text x="1016" y="70" text-anchor="middle" font-size="9.5" font-weight="700" fill="#1e3a8a">split pleura</text><text x="1016" y="82" text-anchor="middle" font-size="9.5" font-weight="700" fill="#1e3a8a">sign</text><text x="1016" y="97" text-anchor="middle" font-size="7.5" fill="#64748b">finding</text><rect x="1068" y="56" width="104" height="48" fill="#eff6ff"/><rect x="1068" y="101" width="104" height="3" fill="#2563eb"/><text x="1120" y="70" text-anchor="middle" font-size="9.5" font-weight="700" fill="#1e3a8a">compressive</text><text x="1120" y="82" text-anchor="middle" font-size="9.5" font-weight="700" fill="#1e3a8a">atelectasis</text><text x="1120" y="97" text-anchor="middle" font-size="7.5" fill="#64748b">finding</text><rect x="1172" y="56" width="104" height="48" fill="#eff6ff"/><rect x="1172" y="101" width="104" height="3" fill="#2563eb"/><text x="1224" y="70" text-anchor="middle" font-size="9.5" font-weight="700" fill="#1e3a8a">mediastinal</text><text x="1224" y="82" text-anchor="middle" font-size="9.5" font-weight="700" fill="#1e3a8a">shift</text><text x="1224" y="97" text-anchor="middle" font-size="7.5" fill="#64748b">finding</text><line x1="24" y1="152" x2="1276" y2="152" stroke="#cbd5e1" stroke-width="0.6"/><g data-node="RDE2_000516"><rect x="24" y="114" width="310" height="34" rx="2" fill="#f8fafc" stroke="#64748b" stroke-width="1" stroke-dasharray="4 3"/><rect x="24" y="118" width="4" height="26" rx="2" fill="#64748b"/><text x="36" y="130" font-size="12" font-weight="700" fill="#334155">pleural abnormality</text><text x="36" y="142" font-size="9" fill="#64748b">grouping · negative-only · RDE2_000516</text><rect x="290.3" y="118" width="41.7" height="15" rx="7.5" fill="#fffbeb" stroke="#d97706"/><text x="311.2" y="129" text-anchor="middle" font-size="9" fill="#78350f">pleura</text></g><rect x="24" y="152" width="1252" height="66" fill="#f8fafc"/><line x1="24" y1="218" x2="1276" y2="218" stroke="#cbd5e1" stroke-width="0.6"/><path d="M30,152 L30,168 L40,168" fill="none" stroke="#2563eb" stroke-width="1.2"/><g data-node="RDE2_000502"><rect x="40" y="156" width="294" height="58" rx="2" fill="#eff6ff" stroke="#2563eb" stroke-width="1"/><rect x="40" y="160" width="4" height="50" rx="2" fill="#2563eb"/><text x="52" y="172" font-size="12" font-weight="700" fill="#1e3a8a">pleural effusion</text><text x="52" y="184" font-size="9" fill="#64748b">finding · RDE2_000502</text><text x="52" y="196" font-size="9" fill="#14532d">change from prior · size (qualitative) · amount · fluid</text><text x="52" y="208" font-size="9" fill="#14532d">attenuation (HU) · internal complexity</text><rect x="255.6" y="160" width="76.4" height="15" rx="7.5" fill="#fffbeb" stroke="#d97706"/><text x="293.8" y="171" text-anchor="middle" font-size="9" fill="#78350f">pleural space</text></g><rect x="341" y="153" width="102" height="64" fill="#cbd5e1" fill-opacity="0.3"/><rect x="758" y="154" width="100" height="62" rx="3" fill="#64748b" fill-opacity="0.1" stroke="#64748b" stroke-width="0.8"/><rect x="758" y="156" width="100" height="11" fill="#64748b"/><text x="763" y="164.5" font-size="7.5" font-weight="700" letter-spacing="0.6" fill="#ffffff">OCCURS WITH</text><rect x="1070" y="154" width="100" height="62" rx="3" fill="#dc2626" fill-opacity="0.1" stroke="#dc2626" stroke-width="0.8"/><rect x="1070" y="156" width="100" height="11" fill="#dc2626"/><text x="1075" y="164.5" font-size="7.5" font-weight="700" letter-spacing="0.6" fill="#ffffff">CAUSES</text><circle cx="1080" cy="175" r="5.5" fill="#ffffff" stroke="#dc2626" stroke-width="1.2"/><path d="M1080,175 L1080,169.5 A5.5,5.5 0 0,1 1080,180.5 z" fill="#dc2626"/><text x="1090" y="178" font-size="8" fill="#1f2937">frequent</text><rect x="1174" y="154" width="100" height="62" rx="3" fill="#dc2626" fill-opacity="0.1" stroke="#dc2626" stroke-width="0.8"/><rect x="1174" y="156" width="100" height="11" fill="#dc2626"/><text x="1179" y="164.5" font-size="7.5" font-weight="700" letter-spacing="0.6" fill="#ffffff">CAUSES</text><circle cx="1184" cy="175" r="5.5" fill="#ffffff" stroke="#dc2626" stroke-width="1.2"/><path d="M1184,175 L1184,169.5 A5.5,5.5 0 0,1 1189.5,175 z" fill="#dc2626"/><text x="1194" y="178" font-size="8" fill="#1f2937">occasional</text><text x="1178" y="190" font-size="8" font-style="italic" fill="#64748b">large effusions</text><line x1="24" y1="260" x2="1276" y2="260" stroke="#cbd5e1" stroke-width="0.6"/><path d="M46,218 L46,234 L56,234" fill="none" stroke="#7c3aed" stroke-width="1.2"/><g data-node="RDE2_000511"><rect x="56" y="222" width="278" height="34" rx="8" fill="#f5f3ff" stroke="#7c3aed" stroke-width="1"/><rect x="56" y="226" width="4" height="26" rx="2" fill="#7c3aed"/><text x="68" y="238" font-size="12" font-weight="700" fill="#4c1d95">hemothorax</text><text x="68" y="250" font-size="9" fill="#64748b">diagnosis · RDE2_000511</text></g><rect x="24" y="260" width="1252" height="42" fill="#f8fafc"/><line x1="24" y1="302" x2="1276" y2="302" stroke="#cbd5e1" stroke-width="0.6"/><path d="M46,218 L46,276 L56,276" fill="none" stroke="#7c3aed" stroke-width="1.2"/><g data-node="RDE2_000512"><rect x="56" y="264" width="278" height="34" rx="8" fill="#f5f3ff" stroke="#7c3aed" stroke-width="1"/><rect x="56" y="268" width="4" height="26" rx="2" fill="#7c3aed"/><text x="68" y="280" font-size="12" font-weight="700" fill="#4c1d95">chylothorax</text><text x="68" y="292" font-size="9" fill="#64748b">diagnosis · RDE2_000512</text></g><line x1="24" y1="344" x2="1276" y2="344" stroke="#cbd5e1" stroke-width="0.6"/><path d="M46,218 L46,318 L56,318" fill="none" stroke="#7c3aed" stroke-width="1.2"/><g data-node="RDE2_000514"><rect x="56" y="306" width="278" height="34" rx="8" fill="#f5f3ff" stroke="#7c3aed" stroke-width="1"/><rect x="56" y="310" width="4" height="26" rx="2" fill="#7c3aed"/><text x="68" y="322" font-size="12" font-weight="700" fill="#4c1d95">hepatic hydrothorax</text><text x="68" y="334" font-size="9" fill="#64748b">diagnosis · RDE2_000514</text></g><rect x="445" y="303" width="102" height="40" fill="#cbd5e1" fill-opacity="0.3"/><rect x="24" y="344" width="1252" height="42" fill="#f8fafc"/><line x1="24" y1="386" x2="1276" y2="386" stroke="#cbd5e1" stroke-width="0.6"/><path d="M46,218 L46,360 L56,360" fill="none" stroke="#7c3aed" stroke-width="1.2"/><g data-node="RDE2_000515"><rect x="56" y="348" width="278" height="34" rx="8" fill="#f5f3ff" stroke="#7c3aed" stroke-width="1"/><rect x="56" y="352" width="4" height="26" rx="2" fill="#7c3aed"/><text x="68" y="364" font-size="12" font-weight="700" fill="#4c1d95">parapneumonic effusion</text><text x="68" y="376" font-size="9" fill="#64748b">diagnosis · RDE2_000515</text></g><rect x="550" y="346" width="100" height="38" rx="3" fill="#0891b2" fill-opacity="0.1" stroke="#0891b2" stroke-width="0.8"/><rect x="550" y="348" width="100" height="11" fill="#0891b2"/><text x="555" y="356.5" font-size="7.5" font-weight="700" letter-spacing="0.6" fill="#ffffff">PROGRESSES TO</text><line x1="24" y1="443" x2="1276" y2="443" stroke="#cbd5e1" stroke-width="0.6"/><path d="M46,218 L46,402 L56,402" fill="none" stroke="#7c3aed" stroke-width="1.2"/><g data-node="RDE2_000510"><rect x="56" y="390" width="278" height="49" rx="8" fill="#f5f3ff" stroke="#7c3aed" stroke-width="1"/><rect x="56" y="394" width="4" height="41" rx="2" fill="#7c3aed"/><text x="68" y="406" font-size="12" font-weight="700" fill="#4c1d95">empyema</text><text x="68" y="418" font-size="9" fill="#64748b">diagnosis · RDE2_000510</text></g><rect x="549" y="387" width="102" height="55" fill="#cbd5e1" fill-opacity="0.3"/><rect x="758" y="388" width="100" height="53" rx="3" fill="#7c3aed" fill-opacity="0.1" stroke="#7c3aed" stroke-width="0.8"/><rect x="758" y="390" width="100" height="11" fill="#7c3aed"/><text x="763" y="398.5" font-size="7.5" font-weight="700" letter-spacing="0.6" fill="#ffffff">MANIFESTS AS</text><circle cx="768" cy="409" r="5.5" fill="#ffffff" stroke="#7c3aed" stroke-width="1.2"/><path d="M768,409 L768,403.5 A5.5,5.5 0 1,1 762.5,409 z" fill="#7c3aed"/><text x="778" y="412" font-size="8" fill="#1f2937">very frequent</text><path d="M767,418.5 L771.5,423 L767,427.5 L762.5,423 z" fill="#7c3aed" stroke="#7c3aed" stroke-width="1"/><path d="M777,418.5 L781.5,423 L777,427.5 L772.5,423 z" fill="#ffffff" stroke="#7c3aed" stroke-width="1"/><path d="M787,418.5 L791.5,423 L787,427.5 L782.5,423 z" fill="#ffffff" stroke="#7c3aed" stroke-width="1"/><text x="794" y="426" font-size="8" fill="#1f2937">suggestive</text><rect x="966" y="388" width="100" height="53" rx="3" fill="#7c3aed" fill-opacity="0.1" stroke="#7c3aed" stroke-width="0.8"/><rect x="966" y="390" width="100" height="11" fill="#7c3aed"/><text x="971" y="398.5" font-size="7.5" font-weight="700" letter-spacing="0.6" fill="#ffffff">MANIFESTS AS</text><circle cx="976" cy="409" r="5.5" fill="#ffffff" stroke="#7c3aed" stroke-width="1.2"/><path d="M976,409 L976,403.5 A5.5,5.5 0 0,1 976,414.5 z" fill="#7c3aed"/><text x="986" y="412" font-size="8" fill="#1f2937">frequent</text><path d="M975,418.5 L979.5,423 L975,427.5 L970.5,423 z" fill="#7c3aed" stroke="#7c3aed" stroke-width="1"/><path d="M985,418.5 L989.5,423 L985,427.5 L980.5,423 z" fill="#7c3aed" stroke="#7c3aed" stroke-width="1"/><path d="M995,418.5 L999.5,423 L995,427.5 L990.5,423 z" fill="#ffffff" stroke="#7c3aed" stroke-width="1"/><text x="1002" y="426" font-size="8" fill="#1f2937">highly</text><text x="1002" y="436" font-size="8" fill="#1f2937">suggestive</text><rect x="24" y="443" width="1252" height="57" fill="#f8fafc"/><line x1="24" y1="500" x2="1276" y2="500" stroke="#cbd5e1" stroke-width="0.6"/><path d="M46,218 L46,459 L56,459" fill="none" stroke="#7c3aed" stroke-width="1.2"/><g data-node="RDE2_000513"><rect x="56" y="447" width="278" height="49" rx="8" fill="#f5f3ff" stroke="#7c3aed" stroke-width="1"/><rect x="56" y="451" width="4" height="41" rx="2" fill="#7c3aed"/><text x="68" y="463" font-size="12" font-weight="700" fill="#4c1d95">malignant pleural effusion</text><text x="68" y="475" font-size="9" fill="#64748b">diagnosis · RDE2_000513</text></g><rect x="653" y="444" width="102" height="55" fill="#cbd5e1" fill-opacity="0.3"/><rect x="862" y="445" width="100" height="53" rx="3" fill="#7c3aed" fill-opacity="0.1" stroke="#7c3aed" stroke-width="0.8"/><rect x="862" y="447" width="100" height="11" fill="#7c3aed"/><text x="867" y="455.5" font-size="7.5" font-weight="700" letter-spacing="0.6" fill="#ffffff">MANIFESTS AS</text><circle cx="872" cy="466" r="5.5" fill="#ffffff" stroke="#7c3aed" stroke-width="1.2"/><path d="M872,466 L872,460.5 A5.5,5.5 0 0,1 872,471.5 z" fill="#7c3aed"/><text x="882" y="469" font-size="8" fill="#1f2937">frequent</text><path d="M871,475.5 L875.5,480 L871,484.5 L866.5,480 z" fill="#7c3aed" stroke="#7c3aed" stroke-width="1"/><path d="M881,475.5 L885.5,480 L881,484.5 L876.5,480 z" fill="#7c3aed" stroke="#7c3aed" stroke-width="1"/><path d="M891,475.5 L895.5,480 L891,484.5 L886.5,480 z" fill="#ffffff" stroke="#7c3aed" stroke-width="1"/><text x="898" y="483" font-size="8" fill="#1f2937">highly</text><text x="898" y="493" font-size="8" fill="#1f2937">suggestive</text><line x1="24" y1="554" x2="1276" y2="554" stroke="#cbd5e1" stroke-width="0.6"/><path d="M30,152 L30,516 L40,516" fill="none" stroke="#2563eb" stroke-width="1.2"/><g data-node="RDE2_000532"><rect x="40" y="504" width="294" height="46" rx="2" fill="#eff6ff" stroke="#2563eb" stroke-width="1"/><rect x="40" y="508" width="4" height="38" rx="2" fill="#2563eb"/><text x="52" y="520" font-size="12" font-weight="700" fill="#1e3a8a">pleural thickening</text><text x="52" y="532" font-size="9" fill="#64748b">finding · RDE2_000532</text><text x="52" y="544" font-size="9" fill="#14532d">distribution</text></g><rect x="342" y="502" width="100" height="50" rx="3" fill="#64748b" fill-opacity="0.1" stroke="#64748b" stroke-width="0.8"/><rect x="342" y="504" width="100" height="11" fill="#64748b"/><text x="347" y="512.5" font-size="7.5" font-weight="700" letter-spacing="0.6" fill="#ffffff">OCCURS WITH</text><rect x="757" y="501" width="102" height="52" fill="#cbd5e1" fill-opacity="0.3"/><rect x="24" y="554" width="1252" height="42" fill="#f8fafc"/><line x1="24" y1="596" x2="1276" y2="596" stroke="#cbd5e1" stroke-width="0.6"/><path d="M46,554 L46,570 L56,570" fill="none" stroke="#2563eb" stroke-width="1.2"/><g data-node="RDE2_000534"><rect x="56" y="558" width="278" height="34" rx="2" fill="#eff6ff" stroke="#2563eb" stroke-width="1"/><rect x="56" y="562" width="4" height="26" rx="2" fill="#2563eb"/><text x="68" y="574" font-size="12" font-weight="700" fill="#1e3a8a">nodular pleural thickening</text><text x="68" y="586" font-size="9" fill="#64748b">finding · RDE2_000534</text></g><rect x="861" y="555" width="102" height="40" fill="#cbd5e1" fill-opacity="0.3"/><line x1="24" y1="606" x2="1276" y2="606" stroke="#cbd5e1"/><text x="24" y="615" font-size="9" letter-spacing="1" font-weight="600" fill="#64748b">OTHER IMAGING CLASSES IN THE FAMILY</text><line x1="24" y1="660" x2="1276" y2="660" stroke="#cbd5e1" stroke-width="0.6"/><g data-node="RDE2_000533"><rect x="24" y="622" width="310" height="34" rx="2" fill="#eff6ff" stroke="#2563eb" stroke-width="1"/><rect x="24" y="626" width="4" height="26" rx="2" fill="#2563eb"/><text x="36" y="638" font-size="12" font-weight="700" fill="#1e3a8a">split pleura sign</text><text x="36" y="650" font-size="9" fill="#64748b">finding · RDE2_000533</text><rect x="290.3" y="626" width="41.7" height="15" rx="7.5" fill="#fffbeb" stroke="#d97706"/><text x="311.2" y="637" text-anchor="middle" font-size="9" fill="#78350f">pleura</text></g><rect x="965" y="619" width="102" height="40" fill="#cbd5e1" fill-opacity="0.3"/><rect x="24" y="660" width="1252" height="54" fill="#f8fafc"/><line x1="24" y1="714" x2="1276" y2="714" stroke="#cbd5e1" stroke-width="0.6"/><g data-node="RDE2_000530"><rect x="24" y="664" width="310" height="46" rx="2" fill="#eff6ff" stroke="#2563eb" stroke-width="1"/><rect x="24" y="668" width="4" height="38" rx="2" fill="#2563eb"/><text x="36" y="680" font-size="12" font-weight="700" fill="#1e3a8a">compressive atelectasis</text><text x="36" y="692" font-size="9" fill="#64748b">finding · RDE2_000530</text><text x="36" y="704" font-size="9" fill="#14532d">severity · size (mean diameter) (mm)</text></g><rect x="1069" y="661" width="102" height="52" fill="#cbd5e1" fill-opacity="0.3"/><line x1="24" y1="756" x2="1276" y2="756" stroke="#cbd5e1" stroke-width="0.6"/><g data-node="RDE2_000531"><rect x="24" y="718" width="310" height="34" rx="2" fill="#eff6ff" stroke="#2563eb" stroke-width="1"/><rect x="24" y="722" width="4" height="26" rx="2" fill="#2563eb"/><text x="36" y="734" font-size="12" font-weight="700" fill="#1e3a8a">mediastinal shift</text><text x="36" y="746" font-size="9" fill="#64748b">finding · RDE2_000531</text></g><rect x="1173" y="715" width="102" height="40" fill="#cbd5e1" fill-opacity="0.3"/><line x1="24" y1="766" x2="1276" y2="766" stroke="#cbd5e1"/><text x="24" y="775" font-size="9" letter-spacing="1" font-weight="600" fill="#64748b">CLINICAL CAUSES · NO ELEMENTS OF THEIR OWN</text><rect x="24" y="778" width="1252" height="73" fill="#f8fafc"/><line x1="24" y1="851" x2="1276" y2="851" stroke="#cbd5e1" stroke-width="0.6"/><g data-node="RDE2_000520"><rect x="24" y="782" width="310" height="65" rx="8" fill="#f5f3ff" stroke="#7c3aed" stroke-width="1"/><rect x="24" y="786" width="4" height="57" rx="2" fill="#7c3aed"/><text x="36" y="798" font-size="12" font-weight="700" fill="#4c1d95">heart failure</text><text x="36" y="810" font-size="9" fill="#64748b">diagnosis · RDE2_000520</text></g><rect x="342" y="780" width="100" height="69" rx="3" fill="#dc2626" fill-opacity="0.1" stroke="#dc2626" stroke-width="0.8"/><rect x="342" y="782" width="100" height="11" fill="#dc2626"/><text x="347" y="790.5" font-size="7.5" font-weight="700" letter-spacing="0.6" fill="#ffffff">CAUSES</text><circle cx="352" cy="801" r="5.5" fill="#ffffff" stroke="#dc2626" stroke-width="1.2"/><path d="M352,801 L352,795.5 A5.5,5.5 0 0,1 352,806.5 z" fill="#dc2626"/><text x="362" y="804" font-size="8" fill="#1f2937">frequent</text><text x="346" y="816" font-size="8" font-style="italic" fill="#dc2626">location bilateral,</text><text x="346" y="826" font-size="8" font-style="italic" fill="#dc2626">right greater than</text><text x="346" y="836" font-size="8" font-style="italic" fill="#dc2626">left; fluid</text><text x="346" y="846" font-size="8" font-style="italic" fill="#dc2626">attenuation simple</text><line x1="24" y1="894" x2="1276" y2="894" stroke="#cbd5e1" stroke-width="0.6"/><g data-node="RDE2_000526"><rect x="24" y="855" width="310" height="35" rx="8" fill="#f5f3ff" stroke="#7c3aed" stroke-width="1"/><rect x="24" y="859" width="4" height="27" rx="2" fill="#7c3aed"/><text x="36" y="871" font-size="12" font-weight="700" fill="#4c1d95">nephrotic syndrome</text><text x="36" y="883" font-size="9" fill="#64748b">diagnosis · RDE2_000526</text></g><rect x="342" y="853" width="100" height="39" rx="3" fill="#dc2626" fill-opacity="0.1" stroke="#dc2626" stroke-width="0.8"/><rect x="342" y="855" width="100" height="11" fill="#dc2626"/><text x="347" y="863.5" font-size="7.5" font-weight="700" letter-spacing="0.6" fill="#ffffff">CAUSES</text><circle cx="352" cy="874" r="5.5" fill="#ffffff" stroke="#dc2626" stroke-width="1.2"/><path d="M352,874 L352,868.5 A5.5,5.5 0 0,1 352,879.5 z" fill="#dc2626"/><text x="362" y="877" font-size="8" fill="#1f2937">frequent</text><text x="346" y="889" font-size="8" font-style="italic" fill="#dc2626">location bilateral</text><rect x="24" y="894" width="1252" height="53" fill="#f8fafc"/><line x1="24" y1="947" x2="1276" y2="947" stroke="#cbd5e1" stroke-width="0.6"/><g data-node="RDE2_000525"><rect x="24" y="898" width="310" height="45" rx="8" fill="#f5f3ff" stroke="#7c3aed" stroke-width="1"/><rect x="24" y="902" width="4" height="37" rx="2" fill="#7c3aed"/><text x="36" y="914" font-size="12" font-weight="700" fill="#4c1d95">pulmonary embolism</text><text x="36" y="926" font-size="9" fill="#64748b">diagnosis · RDE2_000525</text></g><rect x="342" y="896" width="100" height="49" rx="3" fill="#dc2626" fill-opacity="0.1" stroke="#dc2626" stroke-width="0.8"/><rect x="342" y="898" width="100" height="11" fill="#dc2626"/><text x="347" y="906.5" font-size="7.5" font-weight="700" letter-spacing="0.6" fill="#ffffff">CAUSES</text><circle cx="352" cy="917" r="5.5" fill="#ffffff" stroke="#dc2626" stroke-width="1.2"/><path d="M352,917 L352,911.5 A5.5,5.5 0 0,1 352,922.5 z" fill="#dc2626"/><text x="362" y="920" font-size="8" fill="#1f2937">frequent</text><text x="346" y="932" font-size="8" font-style="italic" fill="#dc2626">location ipsilateral;</text><text x="346" y="942" font-size="8" font-style="italic" fill="#dc2626">amount small</text><line x1="24" y1="1020" x2="1276" y2="1020" stroke="#cbd5e1" stroke-width="0.6"/><g data-node="RDE2_000522"><rect x="24" y="951" width="310" height="65" rx="8" fill="#f5f3ff" stroke="#7c3aed" stroke-width="1"/><rect x="24" y="955" width="4" height="57" rx="2" fill="#7c3aed"/><text x="36" y="967" font-size="12" font-weight="700" fill="#4c1d95">pneumonia</text><text x="36" y="979" font-size="9" fill="#64748b">diagnosis · RDE2_000522</text></g><rect x="342" y="949" width="100" height="69" rx="3" fill="#dc2626" fill-opacity="0.1" stroke="#dc2626" stroke-width="0.8"/><rect x="342" y="951" width="100" height="11" fill="#dc2626"/><text x="347" y="959.5" font-size="7.5" font-weight="700" letter-spacing="0.6" fill="#ffffff">CAUSES</text><circle cx="352" cy="970" r="5.5" fill="#ffffff" stroke="#dc2626" stroke-width="1.2"/><path d="M352,970 L352,964.5 A5.5,5.5 0 0,1 352,975.5 z" fill="#dc2626"/><text x="362" y="973" font-size="8" fill="#1f2937">frequent</text><text x="346" y="985" font-size="8" font-style="italic" fill="#dc2626">location ipsilateral</text><text x="346" y="995" font-size="8" font-style="italic" fill="#dc2626">to the pneumonia;</text><text x="346" y="1005" font-size="8" font-style="italic" fill="#dc2626">amount small to</text><text x="346" y="1015" font-size="8" font-style="italic" fill="#dc2626">moderate</text><rect x="24" y="1020" width="1252" height="43" fill="#f8fafc"/><line x1="24" y1="1063" x2="1276" y2="1063" stroke="#cbd5e1" stroke-width="0.6"/><g data-node="RDE2_000523"><rect x="24" y="1024" width="310" height="35" rx="8" fill="#f5f3ff" stroke="#7c3aed" stroke-width="1"/><rect x="24" y="1028" width="4" height="27" rx="2" fill="#7c3aed"/><text x="36" y="1040" font-size="12" font-weight="700" fill="#4c1d95">pancreatitis</text><text x="36" y="1052" font-size="9" fill="#64748b">diagnosis · RDE2_000523</text></g><rect x="342" y="1022" width="100" height="39" rx="3" fill="#dc2626" fill-opacity="0.1" stroke="#dc2626" stroke-width="0.8"/><rect x="342" y="1024" width="100" height="11" fill="#dc2626"/><text x="347" y="1032.5" font-size="7.5" font-weight="700" letter-spacing="0.6" fill="#ffffff">CAUSES</text><circle cx="352" cy="1043" r="5.5" fill="#ffffff" stroke="#dc2626" stroke-width="1.2"/><path d="M352,1043 L352,1037.5 A5.5,5.5 0 0,1 357.5,1043 z" fill="#dc2626"/><text x="362" y="1046" font-size="8" fill="#1f2937">occasional</text><text x="346" y="1058" font-size="8" font-style="italic" fill="#dc2626">location left</text><line x1="24" y1="1126" x2="1276" y2="1126" stroke="#cbd5e1" stroke-width="0.6"/><g data-node="RDE2_000521"><rect x="24" y="1067" width="310" height="55" rx="8" fill="#f5f3ff" stroke="#7c3aed" stroke-width="1"/><rect x="24" y="1071" width="4" height="47" rx="2" fill="#7c3aed"/><text x="36" y="1083" font-size="12" font-weight="700" fill="#4c1d95">cirrhosis</text><text x="36" y="1095" font-size="9" fill="#64748b">diagnosis · RDE2_000521</text></g><rect x="446" y="1065" width="100" height="59" rx="3" fill="#dc2626" fill-opacity="0.1" stroke="#dc2626" stroke-width="0.8"/><rect x="446" y="1067" width="100" height="11" fill="#dc2626"/><text x="451" y="1075.5" font-size="7.5" font-weight="700" letter-spacing="0.6" fill="#ffffff">CAUSES</text><circle cx="456" cy="1086" r="5.5" fill="#ffffff" stroke="#dc2626" stroke-width="1.2"/><path d="M456,1086 L456,1080.5 A5.5,5.5 0 0,1 461.5,1086 z" fill="#dc2626"/><text x="466" y="1089" font-size="8" fill="#1f2937">occasional</text><text x="450" y="1101" font-size="8" font-style="italic" fill="#dc2626">location right</text><text x="450" y="1111" font-size="8" font-style="italic" fill="#dc2626">pleural space in most</text><text x="450" y="1121" font-size="8" font-style="italic" fill="#dc2626">cases</text><rect x="24" y="1126" width="1252" height="53" fill="#f8fafc"/><line x1="24" y1="1179" x2="1276" y2="1179" stroke="#cbd5e1" stroke-width="0.6"/><g data-node="RDE2_000524"><rect x="24" y="1130" width="310" height="45" rx="8" fill="#f5f3ff" stroke="#7c3aed" stroke-width="1"/><rect x="24" y="1134" width="4" height="37" rx="2" fill="#7c3aed"/><text x="36" y="1146" font-size="12" font-weight="700" fill="#4c1d95">malignant neoplastic disease</text><text x="36" y="1158" font-size="9" fill="#64748b">diagnosis · RDE2_000524</text></g><rect x="654" y="1128" width="100" height="49" rx="3" fill="#dc2626" fill-opacity="0.1" stroke="#dc2626" stroke-width="0.8"/><rect x="654" y="1130" width="100" height="11" fill="#dc2626"/><text x="659" y="1138.5" font-size="7.5" font-weight="700" letter-spacing="0.6" fill="#ffffff">CAUSES</text><circle cx="664" cy="1149" r="5.5" fill="#ffffff" stroke="#dc2626" stroke-width="1.2"/><path d="M664,1149 L664,1143.5 A5.5,5.5 0 0,1 669.5,1149 z" fill="#dc2626"/><text x="674" y="1152" font-size="8" fill="#1f2937">occasional</text><text x="658" y="1164" font-size="8" font-style="italic" fill="#dc2626">amount large; recurs</text><text x="658" y="1174" font-size="8" font-style="italic" fill="#dc2626">after drainage</text><line x1="340" y1="56" x2="340" y2="1179" stroke="#cbd5e1" stroke-width="0.6"/><line x1="444" y1="56" x2="444" y2="1179" stroke="#cbd5e1" stroke-width="0.6"/><line x1="548" y1="56" x2="548" y2="1179" stroke="#cbd5e1" stroke-width="0.6"/><line x1="652" y1="56" x2="652" y2="1179" stroke="#cbd5e1" stroke-width="0.6"/><line x1="756" y1="56" x2="756" y2="1179" stroke="#cbd5e1" stroke-width="0.6"/><line x1="860" y1="56" x2="860" y2="1179" stroke="#cbd5e1" stroke-width="0.6"/><line x1="964" y1="56" x2="964" y2="1179" stroke="#cbd5e1" stroke-width="0.6"/><line x1="1068" y1="56" x2="1068" y2="1179" stroke="#cbd5e1" stroke-width="0.6"/><line x1="1172" y1="56" x2="1172" y2="1179" stroke="#cbd5e1" stroke-width="0.6"/><line x1="1276" y1="56" x2="1276" y2="1179" stroke="#cbd5e1" stroke-width="0.6"/><text x="24" y="1210" font-size="9" fill="#64748b">typicality</text><circle cx="82" cy="1207" r="5.5" fill="#ffffff" stroke="#1f2937" stroke-width="1.2"/><path d="M78.2,1210.8 L85.8,1203.2" stroke="#1f2937" stroke-width="1.2"/><text x="91" y="1210" font-size="9" fill="#64748b">excluded</text><circle cx="151.6" cy="1207" r="5.5" fill="#ffffff" stroke="#1f2937" stroke-width="1.2"/><path d="M151.6,1207 L151.6,1201.5 A5.5,5.5 0 0,1 155.5,1203.1 z" fill="#1f2937"/><text x="160.6" y="1210" font-size="9" fill="#64748b">very rare</text><circle cx="226.2" cy="1207" r="5.5" fill="#ffffff" stroke="#1f2937" stroke-width="1.2"/><path d="M226.2,1207 L226.2,1201.5 A5.5,5.5 0 0,1 231.7,1207 z" fill="#1f2937"/><text x="235.2" y="1210" font-size="9" fill="#64748b">occasional</text><circle cx="305.6" cy="1207" r="5.5" fill="#ffffff" stroke="#1f2937" stroke-width="1.2"/><path d="M305.6,1207 L305.6,1201.5 A5.5,5.5 0 0,1 305.6,1212.5 z" fill="#1f2937"/><text x="314.6" y="1210" font-size="9" fill="#64748b">frequent</text><circle cx="375.2" cy="1207" r="5.5" fill="#ffffff" stroke="#1f2937" stroke-width="1.2"/><path d="M375.2,1207 L375.2,1201.5 A5.5,5.5 0 1,1 369.8,1207 z" fill="#1f2937"/><text x="384.2" y="1210" font-size="9" fill="#64748b">very frequent</text><circle cx="469.6" cy="1207" r="5.5" fill="#ffffff" stroke="#1f2937" stroke-width="1.2"/><circle cx="469.6" cy="1207" r="5.5" fill="#1f2937"/><text x="478.6" y="1210" font-size="9" fill="#64748b">obligate</text><text x="549.2" y="1210" font-size="9" fill="#64748b">specificity</text><path d="M612.2,1202.5 L616.7,1207 L612.2,1211.5 L607.7,1207 z" fill="#1f2937" stroke="#1f2937" stroke-width="1"/><path d="M622.2,1202.5 L626.7,1207 L622.2,1211.5 L617.7,1207 z" fill="#ffffff" stroke="#1f2937" stroke-width="1"/><path d="M632.2,1202.5 L636.7,1207 L632.2,1211.5 L627.7,1207 z" fill="#ffffff" stroke="#1f2937" stroke-width="1"/><text x="641.2" y="1210" font-size="9" fill="#64748b">suggestive</text><path d="M711.7,1202.5 L716.2,1207 L711.7,1211.5 L707.2,1207 z" fill="#1f2937" stroke="#1f2937" stroke-width="1"/><path d="M721.7,1202.5 L726.2,1207 L721.7,1211.5 L717.2,1207 z" fill="#1f2937" stroke="#1f2937" stroke-width="1"/><path d="M731.7,1202.5 L736.2,1207 L731.7,1211.5 L727.2,1207 z" fill="#ffffff" stroke="#1f2937" stroke-width="1"/><text x="740.7" y="1210" font-size="9" fill="#64748b">highly suggestive</text><path d="M845.9,1202.5 L850.4,1207 L845.9,1211.5 L841.4,1207 z" fill="#1f2937" stroke="#1f2937" stroke-width="1"/><path d="M855.9,1202.5 L860.4,1207 L855.9,1211.5 L851.4,1207 z" fill="#1f2937" stroke="#1f2937" stroke-width="1"/><path d="M865.9,1202.5 L870.4,1207 L865.9,1211.5 L861.4,1207 z" fill="#1f2937" stroke="#1f2937" stroke-width="1"/><text x="874.9" y="1210" font-size="9" fill="#64748b">pathognomonic</text><text x="24" y="1225" font-size="9" fill="#64748b">An absent glyph means no judgment is recorded. Every class also binds presence. An amber tag is the anatomic scope where it differs from the parent row. Occurs-with is symmetric and is shown in both cells.</text></svg>
